<svg width="1457" height="1460" viewBox="0 0 1457 1460" fill="none" xmlns="http://www.w3.org/2000/svg">
<path d="M210.772 419.197C201.583 414.59 196.763 411.921 187.717 406.349L173.222 397.421L145.267 352.99C142.552 348.612 141.127 346.532 138.623 341.08L136.474 344.568C139.852 348.602 141.059 350.548 144.034 355.237L168.62 394.886L121.679 391.529C116.371 391.116 113.738 390.997 108.682 389.687L96.8668 408.868C102.628 408.057 105.857 407.941 111.273 408.421L164.025 412.352L178.52 421.28C187.566 426.852 192.118 429.956 200.366 436.09L210.772 419.197Z" fill="white"/>
<path d="M70.5753 465.876L62.5994 485.155C66.066 485.481 67.5547 486.235 70.2181 488.168L136.239 539.862C140.077 542.973 142.365 544.474 146.799 549.494L148.463 545.473C143.336 542.797 141.007 540.726 137.051 537.565L118.02 522.628L130.987 491.284L153.965 494.002C160.042 494.716 162.701 494.985 168.525 496.979L176.746 477.108C171.105 477.683 167.659 477.643 161.06 476.852L70.5753 465.876ZM68.0603 483.674L128.495 490.946L116.017 521.106L68.0603 483.674Z" fill="white"/>
<path d="M57.9952 526.299C53.6517 523.944 51.1272 522.888 45.8481 518.766L44.9501 523.025C50.4805 524.714 53.1499 526.323 57.6187 528.705L135.322 569.03L48.9803 574.631C44.7347 574.913 42.1966 575.162 38.9862 574.878C37.7142 574.086 36.3697 573.018 34.6759 571.745L29.7105 595.291C35.1233 593.816 38.5185 593.224 45.1506 592.791L65.2972 591.546L124.15 622.009L37.7816 627.735C31.7034 628.023 29.0136 628.371 22.949 627.354L18.5118 648.395C23.951 646.795 27.3463 646.203 33.9519 645.895L124.941 639.967L129.246 619.552C125.779 619.867 124.177 619.398 121.204 617.987L69.8196 591.191L136.114 586.988L140.419 566.573C136.951 566.888 135.349 566.42 132.377 565.008L57.9952 526.299Z" fill="white"/>
<path d="M117.078 746.34C106.872 747.562 101.379 747.993 90.7601 748.332L73.7447 748.874L25.9264 727.219C21.2474 725.063 18.9119 724.113 13.8164 720.946L13.9469 725.039C18.9894 726.544 21.069 727.502 26.1359 729.773L68.5075 749.297L27.494 772.376C22.8379 774.958 20.5759 776.31 15.6354 778.005L16.3532 800.521C20.7126 796.668 23.3421 794.792 28.1262 792.206L74.3034 766.401L91.3188 765.859C101.937 765.52 107.447 765.601 117.71 766.17L117.078 746.34Z" fill="white"/>
<path d="M65.8389 862.377L35.1461 843.299C29.7934 839.905 26.0423 837.373 19.9469 832.167L21.093 838.073C26.652 840.514 30.3543 842.795 35.8814 846.416L85.6295 878.355L56.8544 883.94C46.425 885.964 40.973 886.761 30.7499 887.832L34.5297 907.309C44.4115 904.479 49.7659 903.179 60.1953 901.155L108.95 891.693C119.379 889.669 124.831 888.871 135.054 887.8L131.274 868.324C121.393 871.154 116.038 872.454 105.609 874.478L89.0222 877.697L80.4905 872.703L111.297 836.604C116.402 830.659 118.4 828.185 122.812 824.721L117.813 798.962C114.083 805.944 111.527 809.57 106.953 814.891L65.8389 862.377Z" fill="white"/>
<path d="M140.342 905.613L130.849 904.483C141.2 917.662 144.607 925.011 148.993 937.444L152.23 946.618L82.8225 971.105C72.8037 974.639 67.5281 976.229 57.5733 978.791L64.1742 997.501C73.5327 993.249 78.638 991.176 88.6568 987.642L135.491 971.118C145.51 967.584 150.828 966.114 160.826 963.673L140.342 905.613Z" fill="white"/>
<path d="M171.11 985.497C162.245 990.7 157.383 993.294 147.788 997.853L102.929 1019.17C93.3336 1023.73 88.2523 1025.86 78.6187 1029.44L87.1331 1047.36C95.9977 1042.16 100.859 1039.56 110.455 1035.01L155.313 1013.69C164.909 1009.13 169.99 1007 179.624 1003.42L171.11 985.497Z" fill="white"/>
<path d="M214.253 1058.55L109.127 1078.32L167.631 1040.09C176.524 1034.28 181.272 1031.48 190.334 1026.63L179.481 1010.02C171.399 1016.37 167.001 1019.7 158.108 1025.52L116.534 1052.68C107.64 1058.5 102.823 1061.19 93.7607 1066.04L103.984 1081.68L191.074 1065.9L142.845 1141.15L153.908 1158.08C161.99 1151.73 166.457 1148.5 175.351 1142.69L216.925 1115.52C225.819 1109.71 230.566 1106.91 239.628 1102.06L236.967 1097.99C228.956 1104.45 224.488 1107.67 215.595 1113.49L157.412 1151.51L216.004 1061.23L214.253 1058.55Z" fill="white"/>
<path d="M268.676 1142.68L268.37 1154.8L280.407 1155.01L280.708 1143.07L299.887 1136.49L299.919 1135.23L268.676 1142.68Z" fill="white"/>
<path d="M244.147 1219.76C237.278 1227.86 233.524 1231.9 226.22 1239.13L241.355 1251.96C247.292 1243.57 250.656 1239.2 257.525 1231.1L272.836 1213.03L306.328 1241.42L291.017 1259.48C284.148 1267.59 280.394 1271.62 273.09 1278.86L288.225 1291.68C294.162 1283.29 297.526 1278.93 304.395 1270.82L336.506 1232.94C343.375 1224.83 347.129 1220.8 354.433 1213.57L339.298 1200.74C333.361 1209.13 329.998 1213.49 323.128 1221.6L307.818 1239.66L274.325 1211.28L289.636 1193.21C296.505 1185.11 300.259 1181.07 307.564 1173.84L292.428 1161.01C286.491 1169.4 283.128 1173.77 276.259 1181.87L244.147 1219.76Z" fill="white"/>
<path d="M382.1 1231.85C377.46 1241.02 374.775 1245.83 369.171 1254.86L330.351 1317.39L329.046 1316.58C323.5 1313.14 316.143 1307.51 309.911 1297.17L299.598 1301.16L373.437 1347L372.441 1335.99C360.403 1334.99 352.1 1330.89 346.554 1327.45L345.249 1326.64L384.07 1264.11C389.673 1255.08 392.794 1250.54 398.956 1242.32L382.1 1231.85Z" fill="white"/>
<path d="M430.639 1288.51C430.147 1305.21 436.982 1314.79 447.003 1321.57C428.861 1315.14 412.341 1314.86 404.562 1332.56C395.443 1353.3 412.585 1366.15 434.379 1375.73L459.923 1386.96C463.224 1377.23 465.205 1372.08 469.481 1362.36L489.47 1316.89C493.746 1307.17 496.196 1302.23 501.138 1293.22L482.976 1285.24C479.674 1294.97 477.694 1300.11 473.417 1309.84L464.968 1329.05L461.688 1327.61C450.087 1322.51 445.723 1316.54 447.521 1294.96C449.287 1275.04 439.621 1266.17 418.647 1256.95L417.771 1258.94C428.434 1263.63 431.374 1270.94 430.639 1288.51ZM443.794 1377.21L435.475 1373.55C422.703 1367.94 412.812 1358 420.849 1339.72C428.886 1321.44 442.898 1322.01 455.67 1327.62L463.99 1331.28L443.794 1377.21Z" fill="white"/>
<path d="M521.49 1406.49L541.65 1411.86C541.518 1408.38 542.07 1406.81 543.637 1403.91L586.21 1331.67C588.79 1327.46 589.977 1325 594.371 1319.94L590.166 1318.82C588.188 1324.25 586.44 1326.83 583.827 1331.17L571.518 1352L538.743 1343.26L538.419 1320.13C538.328 1314.01 538.246 1311.34 539.457 1305.3L518.679 1299.76C519.99 1305.28 520.403 1308.7 520.486 1315.35L521.49 1406.49ZM539.465 1406.64L538.735 1345.78L570.273 1354.19L539.465 1406.64Z" fill="white"/>
<path d="M607.559 1322.01L602.394 1330.05C618.644 1326.49 626.871 1326.65 639.843 1328.12L652.434 1329.55L646.745 1379.66L639.241 1378.81C632.501 1378.04 625.633 1377.26 613.949 1374.65L613.386 1379.61C625.359 1379.68 632.226 1380.46 638.967 1381.22L646.471 1382.08L641.432 1426.46L630.24 1425.19C623.753 1424.46 612.408 1422.27 602.472 1415.6L594.863 1423.62L659.853 1431C659.991 1420.71 660.23 1415.2 661.429 1404.64L667.031 1355.3C668.23 1344.74 669.232 1339.31 671.405 1329.26L607.559 1322.01Z" fill="white"/>
<path d="M771.11 1333.01C743.14 1336.28 723.378 1361.27 726.645 1389.24C729.912 1417.21 754.902 1436.97 782.872 1433.7C810.842 1430.44 830.604 1405.45 827.337 1377.48C824.069 1349.51 799.08 1329.75 771.11 1333.01Z" fill="white"/>
<path d="M944.346 1295.95C948.401 1305.39 950.367 1310.54 953.691 1320.63L975.842 1387.86L975.559 1387.82L891.584 1313.33L871.889 1319.82C876.066 1329.22 878.032 1334.37 881.356 1344.46L896.898 1391.63C900.223 1401.72 901.702 1407.03 903.934 1417.08L908.311 1415.63C904.255 1406.19 902.168 1401.08 898.843 1390.99L876.692 1323.76L876.976 1323.8L961.072 1398.25L980.645 1391.8C976.59 1382.36 974.624 1377.21 971.3 1367.12L955.758 1319.95C952.433 1309.86 950.954 1304.55 948.601 1294.54L944.346 1295.95Z" fill="white"/>
<path d="M1009.18 1266.42C979.403 1281.85 966.564 1312.44 981.522 1341.31C996.422 1370.06 1028.87 1377.32 1058.65 1361.89C1088.65 1346.34 1101.32 1315.7 1086.42 1286.95C1071.46 1258.08 1039.18 1250.88 1009.18 1266.42ZM1010.3 1268.58C1033.37 1256.63 1057.17 1271.68 1069.6 1295.66C1081.97 1319.53 1080.6 1347.77 1057.53 1359.73C1034.69 1371.57 1010.71 1356.46 998.342 1332.59C985.916 1308.61 987.455 1280.42 1010.3 1268.58Z" fill="white"/>
<path d="M1125.18 1184.26C1132.42 1191.56 1136.13 1195.63 1142.92 1203.8L1153.8 1216.9L1166.08 1267.94C1167.25 1272.95 1167.93 1275.38 1168.56 1281.35L1171.71 1278.73C1169.8 1273.82 1169.28 1271.6 1167.96 1266.2L1157.35 1220.77L1200.75 1238.96C1205.65 1241.05 1208.1 1242.01 1212.48 1244.87L1229.8 1230.47C1224.09 1229.4 1220.99 1228.47 1216.01 1226.29L1167.29 1205.69L1156.41 1192.6C1149.62 1184.43 1146.3 1180.03 1140.44 1171.58L1125.18 1184.26Z" fill="white"/>
<path d="M1255.68 1200.02L1269.4 1184.31C1266.22 1182.89 1265.05 1181.7 1263.15 1179.01L1217.12 1108.92C1214.48 1104.75 1212.79 1102.59 1210.2 1096.42L1207.34 1099.7C1211.34 1103.87 1212.88 1106.58 1215.62 1110.84L1228.87 1131.08L1206.56 1156.63L1185.66 1146.7C1180.13 1144.09 1177.7 1142.98 1172.82 1139.23L1158.68 1155.43C1164.2 1156.69 1167.46 1157.83 1173.46 1160.69L1255.68 1200.02ZM1263.75 1183.96L1208.82 1157.75L1230.28 1133.16L1263.75 1183.96Z" fill="white"/>
<path d="M1249.81 1082.84C1266.25 1085.82 1276.74 1080.49 1284.95 1071.59C1275.87 1088.57 1273.14 1104.86 1289.47 1115.2C1308.62 1127.31 1323.88 1112.28 1336.61 1092.16L1351.53 1068.58C1342.4 1063.86 1337.61 1061.13 1328.63 1055.45L1286.66 1028.9C1277.68 1023.22 1273.17 1020.06 1264.99 1013.83L1254.38 1030.6C1263.52 1035.31 1268.31 1038.04 1277.28 1043.72L1295.02 1054.94L1293.11 1057.97C1286.33 1068.68 1279.77 1072.1 1258.7 1067.1C1239.27 1062.38 1229.06 1070.62 1216.81 1089.98L1218.65 1091.15C1224.88 1081.3 1232.54 1079.48 1249.81 1082.84ZM1339.48 1083.07L1334.62 1090.75C1327.16 1102.54 1315.86 1110.84 1298.98 1100.16C1282.11 1089.48 1284.76 1075.71 1292.22 1063.92L1297.08 1056.24L1339.48 1083.07Z" fill="white"/>
<path d="M1380.03 1010.61L1388.35 991.483C1384.89 991.094 1383.42 990.313 1380.79 988.332L1315.71 935.452C1311.93 932.272 1309.67 930.73 1305.33 925.63L1303.59 929.621C1308.67 932.388 1310.96 934.502 1314.86 937.733L1333.62 953.013L1320.09 984.117L1297.16 980.983C1291.1 980.16 1288.44 979.843 1282.66 977.744L1274.08 997.462C1279.73 996.989 1283.17 997.092 1289.76 998.002L1380.03 1010.61ZM1382.87 992.865L1322.57 984.5L1335.59 954.57L1382.87 992.865Z" fill="white"/>
<path d="M1323.11 857.435L1409.86 920.02L1341.84 903.95C1331.5 901.507 1326.21 899.992 1316.45 896.765L1311.89 916.074C1322.06 917.556 1327.5 918.448 1337.84 920.891L1386.17 932.311C1396.51 934.754 1401.78 936.393 1411.54 939.62L1415.84 921.432L1344.41 869.175L1432.17 852.296L1436.82 832.614C1426.65 831.131 1421.24 830.115 1410.9 827.672L1362.56 816.252C1352.23 813.809 1346.93 812.294 1337.17 809.068L1336.05 813.802C1346.25 815.16 1351.67 816.176 1362.01 818.619L1429.65 834.601L1323.85 854.321L1323.11 857.435Z" fill="white"/>
<path d="M1332.79 686.151C1335.63 719.566 1358.96 743.145 1391.36 740.389C1423.63 737.643 1442.76 710.451 1439.92 677.035C1437.06 643.365 1413.61 619.925 1381.34 622.67C1348.95 625.427 1329.92 652.481 1332.79 686.151ZM1335.21 685.945C1333.01 660.055 1356.04 643.836 1382.95 641.546C1409.73 639.267 1435.3 651.351 1437.5 677.242C1439.68 702.877 1416.53 719.234 1389.75 721.513C1362.84 723.803 1337.39 711.58 1335.21 685.945Z" fill="white"/>
<path d="M1325.25 604.507C1335.1 601.578 1340.44 600.225 1350.85 598.098L1399.51 588.153C1409.92 586.025 1415.36 585.174 1425.57 584.001L1421.6 564.563C1411.75 567.491 1406.41 568.844 1396 570.972L1347.34 580.917C1336.93 583.044 1331.49 583.896 1321.28 585.068L1325.25 604.507Z" fill="white"/>
<path d="M1304.14 524.817C1314.68 556.79 1338.35 570.552 1369.71 560.215C1402.42 549.439 1411.73 524.132 1401.39 492.767L1391.62 463.104C1382.17 467.16 1377.03 469.126 1366.94 472.451L1319.77 487.995C1309.68 491.32 1304.37 492.8 1294.36 495.154L1304.14 524.817ZM1395.16 481.614L1398.92 493.042C1405.53 513.101 1395.39 531.807 1363.78 542.223C1333.39 552.239 1312.9 543.628 1306.29 523.569L1302.52 512.142L1395.16 481.614Z" fill="white"/>
<path d="M1269.4 449.059C1280.17 469.855 1296.43 473.97 1326.21 458.539L1355.08 443.579C1364.51 438.69 1369.51 436.385 1379.02 432.468L1376.84 428.264C1368.16 433.771 1363.39 436.531 1353.96 441.419L1325.09 456.38C1297.25 470.81 1283.05 467.066 1274.16 449.905C1264.85 431.95 1272.23 419.763 1298.94 405.922L1327.81 390.962C1337.24 386.073 1342.24 383.768 1351.75 379.851L1342.62 362.236C1333.94 367.744 1329.17 370.504 1319.74 375.392L1290.87 390.353C1258.37 407.198 1257.79 426.671 1269.4 449.059Z" fill="white"/>
<path d="M1233.64 383.07C1241.42 376.347 1245.73 372.916 1254.34 366.695L1314 323.593L1314.9 324.838C1318.72 330.13 1323.39 338.125 1325.23 350.064L1336.28 350.287L1285.39 279.837L1282.13 290.404C1292.88 295.897 1299.01 302.842 1302.83 308.134L1303.73 309.379L1244.07 352.48C1235.46 358.702 1230.85 361.718 1222.02 366.988L1233.64 383.07Z" fill="white"/>
<path d="M1183.1 322.727C1194.24 334.568 1209.86 338.851 1222.73 326.75C1234.85 315.35 1232.57 301.154 1228.53 273.321C1225.45 252.671 1224.15 244.934 1230.59 238.883C1236.18 233.622 1244.39 234.508 1251.59 242.154C1262.9 254.182 1257.57 268.326 1249.89 279.771L1262.57 285.594C1267.59 266.641 1264.84 252.702 1253.97 241.14C1243.36 229.858 1229.71 226.179 1219.36 235.913C1209.57 245.12 1210.43 255.379 1213.59 279.292C1216.83 303.659 1219.15 316.588 1211.5 323.779C1203.11 331.671 1193.38 330.105 1185.66 321.9C1174.09 309.592 1176.87 289.755 1190.16 272.506L1176.27 267.824C1165.58 291.763 1169.77 308.554 1183.1 322.727Z" fill="white"/>
<path d="M1092.3 235.16C1097.51 226.302 1100.5 221.672 1106.67 213.022L1116.55 199.16L1162.76 174.256C1167.31 171.841 1169.48 170.559 1175.09 168.427L1171.76 166.049C1167.5 169.148 1165.48 170.221 1160.6 172.874L1119.39 194.738L1125.9 148.129C1126.66 142.861 1126.96 140.242 1128.61 135.286L1110.26 122.208C1110.69 128.01 1110.58 131.239 1109.74 136.612L1102.27 188.98L1092.39 202.842C1086.22 211.492 1082.82 215.825 1076.14 223.643L1092.3 235.16Z" fill="white"/>
<path d="M1012.67 188.74C1032.22 198.568 1051.74 201.069 1061.57 181.512C1069.96 164.814 1061.51 151.688 1048.77 142.274C1063.7 147.055 1072.69 143.41 1078.1 132.659C1087 114.932 1072.6 104.255 1056.93 96.3813L1025.94 80.8056C1022.14 90.3576 1019.9 95.3905 1015.13 104.883L992.827 149.259C988.056 158.752 985.356 163.555 979.958 172.302L1012.67 188.74ZM1041.54 91.37L1050.01 95.6231C1060.07 100.681 1069.27 110.603 1062.2 124.67C1056.22 136.565 1047.51 140.211 1032.64 132.739L1023.15 127.969L1041.54 91.37ZM1022.06 130.142L1032.7 135.487C1042.42 140.372 1054.87 152.361 1044.53 172.948C1035.85 190.218 1020.96 190.188 1007.35 183.348L997.748 178.52L1022.06 130.142Z" fill="white"/>
<path d="M901.04 139.682C900.894 136.203 901.441 134.626 902.996 131.726L945.292 59.3234C947.732 55.0675 949.033 52.6301 953.408 47.5587L949.075 46.4213C947.241 51.895 945.38 54.4501 942.907 58.8298L898.835 134.471L897.334 47.9263C897.343 41.8413 897.126 39.1377 898.438 33.13L877.639 27.6705C878.972 33.1813 879.397 36.6015 879.382 43.2142L880.86 134.385L901.04 139.682Z" fill="white"/>
<path d="M841.569 124.856L846.703 116.792C830.467 120.42 822.24 120.29 809.261 118.867L796.665 117.486L802.162 67.3543L809.669 68.1774C816.412 68.9169 823.283 69.6702 834.977 72.2401L835.521 67.2778C823.548 67.2527 816.677 66.4993 809.934 65.7599L802.427 64.9368L807.296 20.5309L818.493 21.7587C824.982 22.4702 836.336 24.6164 846.296 31.2456L853.875 23.1917L788.857 16.0626C788.759 26.3532 788.541 31.8662 787.383 42.4269L781.97 91.7951C780.812 102.356 779.83 107.785 777.696 117.853L841.569 124.856Z" fill="white"/>
<path d="M714.602 118.28C748.241 116.992 768.011 98.046 766.747 65.0462C765.43 30.6394 743.684 14.6917 710.684 15.9552L679.475 17.1502C680.762 27.3484 681.228 32.8386 681.635 43.4548L683.535 93.0824C683.942 103.699 683.896 109.208 683.393 119.475L714.602 118.28ZM698.242 18.8654L710.265 18.4051C731.37 17.597 746.544 32.5154 747.817 65.771C749.041 97.7476 735.102 115.062 713.997 115.87L701.974 116.33L698.242 18.8654Z" fill="white"/>
</svg>
